# xmcd
#
# Track frame offsets:
#        150
#        20100
#        41605
#        72000
#        102637
#        119025
#        152055
#        175005
#        206587
#        229725
#
# Disc length: 3483 seconds
#
# Revision: 2
# Processed by: cddbd v1.5.1PL2 Copyright (c) Steve Scherf et al.
# Submitted via: ExactAudioCopy v0.95b1
#
DISCID=8a0d990a
DTITLE=Herbie Mann - Deep Pocket
DYEAR=1992
DGENRE=Jazz
TTITLE0=Down On The Corner
TTITLE1=Knock On Wood
TTITLE2=Moanin'
TTITLE3=Mustang Sally
TTITLE4=When Something Is Wrong With My Baby
TTITLE5=Papa Was A Rolling Stone
TTITLE6=Sunny
TTITLE7=Mercy, Mercy, Mercy
TTITLE8=Go Home
TTITLE9=Amazing Grace
EXTD=
EXTT0=
EXTT1=
EXTT2=
EXTT3=
EXTT4=
EXTT5=
EXTT6=
EXTT7=
EXTT8=
EXTT9=
PLAYORDER=
